Patient4_TMGait_0pt4_02_right_20_EMG.mot
version=1
nRows=16
nColumns=33
inDegrees=no
endheader
time	1LAddLong	2LGlutMax	3LGlutMed	4LIliopsoas	5LSemiMemb	6LBicFemLong	7LRecFem	8LVastMed	9LVastLat	10LGasMed	11LTibAnt	12lTibPost	13LPeroneusLong	14LSol	15LExtDigLong	16LFlexDigLong	17RAddLong	18RGlutMax	19RGlutMed	20RIliopsoas	21RSemiMemb	22RBicFemLong	23RRecFem	24RVastMed	25RVastLat	26RGasMed	27RTibAnt	28RTibPost	29RPeroneusLong	30RSol	31RExtDigLong	32RFlexDigLong
26.14	0.002289	0.078278	-0.090332	0.004272	0.017395	0.002136	0.045471	-0.021057	-0.16663	-0.055237	-0.080872	0.0177	0.42267	0.17288	-0.31418	0.011749	-0.007019	-0.076752	0.095215	-0.077667	0.085297	0.005798	0.36911	-0.024109	0.018921	-0.002747	0.22888	-0.002594	-0.26138	0.019379	-0.000153	-0.011597
26.141	0.001068	0.075378	-0.18433	-0.005035	0.061951	-0.045166	0.077515	-0.016785	-0.060577	-0.071869	-0.18158	0.020294	0.2066	0.32196	-0.41519	0.00824	0.014648	-0.11704	0.068665	-0.10452	0.092468	-0.025482	0.27695	-0.046234	0.009308	-0.00061	0.3009	-0.002441	-0.18906	-0.04303	-0.005646	-0.01236
26.142	0.011292	0.05188	-0.091553	-0.032806	0.051422	0.019989	0.096893	-0.003662	-0.022888	-0.081177	-0.17487	0.015106	-0.19394	0.13657	-0.67047	0.010681	0.00946	-0.10437	-0.009918	-0.13275	0.072174	-0.04715	0.23651	-0.10666	0.005646	0.000305	0.17456	-0.003967	0.097046	-0.008087	0.001526	-0.010529
26.143	0.016632	0.026398	-0.026093	-0.02533	0.033875	0.085602	0.12772	0.010376	-0.018311	-0.065918	0.090942	0.015411	-0.27222	-0.11581	-0.68771	-0.000305	-0.01709	-0.13443	-0.14542	-0.11795	0.068512	0.00351	0.16892	-0.05661	-0.007172	-0.007477	0.052948	-0.002899	0.11627	0.09201	-0.00061	-0.015869
26.144	0.014801	0.093231	0.34424	-0.002136	0.020294	0.056915	0.11795	0.020142	-0.022583	-0.046997	0.012665	0.028381	0.009918	-0.052948	-0.45731	0.001373	0.013733	-0.096893	0.063629	-0.094452	0.0914	0.039063	0.16022	-0.12116	-0.010376	0.001678	-0.18021	0	0.30121	0.063019	-0.005798	-0.008392
26.145	0.013885	0.099487	0.1329	0.008698	0.014343	0.082397	0.095215	0.012817	-0.018005	0.003815	-0.064697	0.014038	0.1207	-0.1059	0.18768	-0.010071	0.022125	-0.15366	0.094299	-0.088043	0.09079	0.036469	0.11643	-0.1088	-0.023499	0.007935	-0.38055	-0.00061	0.2002	-0.010834	0.001221	-0.006714
26.146	0.026855	0.0737	0.13336	0.015869	0.007935	0.095978	0.016479	0.016937	0.005798	-0.023193	-0.049438	0.01297	0.20294	-0.085144	0.27573	-0.01236	0.020599	-0.15915	0.13733	-0.12833	0.06073	0.004883	0.12314	-0.14191	-0.014954	-0.000305	-0.32883	0.003204	0.16632	-0.047607	0.006409	-0.000916
26.147	0.012665	0.10086	0.041199	0.025177	-0.000305	0.045166	-0.056305	0.018616	0.046997	-0.018158	-0.026398	0.015564	0.30243	-0.057068	-0.009003	-0.003204	0.004272	-0.1358	0.1326	-0.12177	-0.010681	0.011139	0.15228	-0.10208	-0.019836	0.001068	0.053101	-0.000153	0.037079	-0.023041	-0.009613	0.000458
26.148	0.005035	0.1268	0.085907	0.023804	0.023804	0.059967	-0.092926	-0.002289	0.09903	-0.000305	0.035553	0.014191	0.29327	-0.04425	-0.10605	0.006714	-0.02655	-0.14542	0.1326	-0.085907	0.018311	-0.016022	0.15976	-0.10544	-0.032959	0.00885	-0.038147	-0.000305	0.017548	0.022583	-0.002747	0.00351
26.149	-0.007782	0.15488	0.10452	0.017548	-0.013275	0.075073	-0.11795	-0.009003	0.20691	-0.006714	0.03067	0.012512	0.058899	0.055542	0.000458	0.001373	-0.05127	-0.10681	0.15549	-0.097046	0.048981	-0.059967	0.22324	-0.087585	-0.013733	0.015869	-0.32135	0.001373	0.052338	-0.029602	-0.003967	-0.00061
26.15	-0.021057	0.18753	0.024109	0.007782	-0.081635	0.04303	-0.16403	0.006409	0.21698	-0.031128	0.006561	0.012817	-0.52292	0.054626	0.058746	0.016785	-0.06012	-0.1088	0.11612	-0.058289	0.046539	-0.085907	0.29129	-0.16098	-0.029144	0.017548	0.19058	-0.000916	0.11093	-0.056915	-0.003967	-0.000153
26.151	-0.00946	0.21179	0.049896	0.008087	-0.11246	-0.023041	-0.1152	0.003967	0.19028	0.014191	-0.008392	0.014343	0.036011	-0.03418	0.040131	-0.003204	-0.091553	-0.14404	0.1004	-0.012817	0.044861	-0.07782	0.055237	-0.2095	-0.059662	0.006714	0.12375	-0.003204	0.22629	-0.014496	-0.00351	-0.005798
26.152	0.012054	0.20615	0.092926	0.025177	0.044708	-0.035095	-0.003662	-0.006866	0.15549	0.003967	-0.026093	0.019989	0.38238	-0.1152	0.086517	-0.000153	-0.097961	-0.14587	0.047455	-0.072327	0.02594	-0.094452	-0.1973	-0.18524	-0.064545	-0.003662	-0.0383	-0.010223	-0.12238	0.088654	-0.002899	-0.002899
26.153	0.016479	0.16525	0.050964	0.030212	0.10193	0.00412	0.037689	-0.01358	0.17166	0.020752	-0.016785	0.018158	-0.12711	-0.2739	0.1355	0.016479	-0.085144	-0.15945	-0.082092	0.069122	0.049591	-0.066071	-0.32333	-0.20874	-0.05249	-0.0177	0.046387	-0.006409	-0.12512	0.15091	-0.004883	-0.010376
26.154	0.02655	0.17654	-0.032806	0.011444	0.091553	0.000763	-0.02182	0.016174	0.29663	-0.016937	-0.068207	0.015411	-0.46921	-0.33661	0.11993	0.017395	-0.003052	-0.16769	-0.18005	0.038452	0.079956	-0.054321	-0.32196	-0.13458	-0.03067	-0.023499	0.06958	-0.007324	0.087433	0.10346	-0.00824	-0.011139
26.155	0.019379	0.17548	-0.039063	-0.015564	0.052338	-0.033722	-0.037231	-0.003204	0.44327	0.05188	-0.091248	0.012665	0.12161	-0.383	-0.12009	-0.005646	0.063629	-0.12177	0.48996	0.086975	0.075378	-0.046539	-0.23117	-0.1535	-0.036621	-0.021515	0.16541	0.00885	0.5661	-0.019989	0.001221	-0.00351
